<svg xmlns="http://www.w3.org/2000/svg" xmlns:xlink="http://www.w3.org/1999/xlink" viewBox="0 0 259.21 65.55"><defs><style>.a{fill:url(#a);}.b{fill:url(#b);}.c{fill:#1a8ff6;}.d{fill:url(#c);}.e{fill:url(#d);}.f{fill:url(#e);}.g{fill:url(#f);}.h{fill:url(#g);}.i{fill:url(#h);}.j{fill:url(#i);}.k{fill:url(#j);}.l{fill:url(#k);}.m{fill:url(#l);}.n{fill:url(#m);}.o{fill:url(#n);}.p{fill:url(#o);}.q{fill:none;}.r{fill:#1ac7f6;}</style><linearGradient id="a" x1="755.25" y1="43.55" x2="755.25" y2="13.22" gradientTransform="matrix(-1, 0, 0, 1, 968.37, 0)" gradientUnits="userSpaceOnUse"><stop offset="0.11" stop-color="#1d7df6"/><stop offset="0.58" stop-color="#1db1f6"/><stop offset="1" stop-color="#1de4f6"/></linearGradient><linearGradient id="b" x1="200.9" y1="43.55" x2="200.9" y2="13.22" gradientUnits="userSpaceOnUse"><stop offset="0" stop-color="#1de4f6"/><stop offset="1" stop-color="#1dacf6"/></linearGradient><linearGradient id="c" x1="87.68" y1="43.55" x2="87.68" y2="0.14" gradientUnits="userSpaceOnUse"><stop offset="0" stop-color="#1d7df6"/><stop offset="1" stop-color="#1de4f6"/></linearGradient><linearGradient id="d" x1="3.92" y1="43.55" x2="3.92" y2="0.14" gradientUnits="userSpaceOnUse"><stop offset="0.31" stop-color="#1d7df6"/><stop offset="0.43" stop-color="#1d87f6"/><stop offset="0.63" stop-color="#1da4f6"/><stop offset="0.9" stop-color="#1dd1f6"/><stop offset="1" stop-color="#1de4f6"/></linearGradient><linearGradient id="e" x1="30.32" y1="28.38" x2="0" y2="28.38" xlink:href="#c"/><linearGradient id="f" x1="228.89" y1="26.16" x2="254.77" y2="26.16" xlink:href="#c"/><linearGradient id="g" x1="102.95" y1="33.74" x2="124.39" y2="12.3" xlink:href="#c"/><linearGradient id="h" x1="108.31" y1="30.6" x2="134.19" y2="30.6" gradientUnits="userSpaceOnUse"><stop offset="0" stop-color="#1de4f6"/><stop offset="1" stop-color="#1d7df6"/></linearGradient><linearGradient id="i" x1="150.13" y1="43.55" x2="150.13" y2="0.14" xlink:href="#c"/><linearGradient id="j" x1="174.29" y1="43.55" x2="174.29" y2="20.48" xlink:href="#c"/><linearGradient id="k" x1="1302.4" y1="-537.65" x2="1289.74" y2="-524.99" gradientTransform="translate(-358.64 -1285.76) rotate(90)" gradientUnits="userSpaceOnUse"><stop offset="0" stop-color="#1dacf6"/><stop offset="1" stop-color="#1de4f6"/></linearGradient><linearGradient id="l" x1="233.33" y1="35.65" x2="259.21" y2="35.65" xlink:href="#b"/><linearGradient id="m" x1="40.33" y1="33.74" x2="61.77" y2="12.3" xlink:href="#c"/><linearGradient id="n" x1="45.69" y1="30.6" x2="71.58" y2="30.6" xlink:href="#h"/><linearGradient id="o" x1="242.98" y1="33.57" x2="242.98" y2="18.33" gradientUnits="userSpaceOnUse"><stop offset="0" stop-color="#1de4f6"/><stop offset="0.14" stop-color="#21e5f6"/><stop offset="0.29" stop-color="#2ee6f6"/><stop offset="0.43" stop-color="#42e9f6"/><stop offset="0.58" stop-color="#5fedf6"/><stop offset="0.73" stop-color="#84f3f6"/><stop offset="0.88" stop-color="#b1f9f6"/><stop offset="1" stop-color="#dbfff6"/></linearGradient></defs><polygon class="a" points="202.04 43.55 211.66 43.55 224.21 16.05 214.59 16.05 202.04 43.55"/><polygon class="b" points="202.04 43.55 211.66 43.55 199.76 16.05 190.14 16.05 202.04 43.55"/><path class="c" d="M193.88,65.08v-1c5-3.88,7.14-5.7,7.14-6.95a1.73,1.73,0,0,0-1.75-1.7,2.36,2.36,0,0,0-2.4,2l-2.68-.82c.07-2.2,2.39-4,5.08-4s5.11,2,5.11,4.43c0,1.81-1.6,3.79-4.09,5l0,0,.05.24h4.23v2.78Z"/><path class="c" d="M217.17,65.34c-3.59,0-5.92-2.51-5.92-6.39s2.33-6.39,5.92-6.39,5.86,2.5,5.86,6.38S220.73,65.34,217.17,65.34Zm0-9.9c-1.55,0-2.55,1.38-2.55,3.5s1,3.5,2.55,3.5,2.53-1.37,2.53-3.48S218.68,55.44,217.14,55.44Z"/><path class="c" d="M229.46,65.08v-1c5-3.88,7.13-5.7,7.13-6.95a1.72,1.72,0,0,0-1.75-1.7,2.35,2.35,0,0,0-2.39,2l-2.68-.82c.07-2.2,2.38-4,5.08-4S240,54.59,240,57c0,1.8-1.61,3.79-4.09,5l0,0,.06.24h4.23v2.78Z"/><path class="c" d="M247.11,65.08v-1c5-3.88,7.14-5.7,7.14-6.95a1.73,1.73,0,0,0-1.75-1.7,2.36,2.36,0,0,0-2.4,2l-2.67-.82c.06-2.2,2.38-4,5.08-4s5.1,2,5.1,4.43c0,1.8-1.6,3.79-4.08,5l0,0,.06.24h4.22v2.78Z"/><rect class="d" x="83.76" y="0.14" width="7.83" height="43.41"/><rect class="e" y="0.14" width="7.83" height="43.41"/><path class="f" d="M15.16,13.22A15.16,15.16,0,0,0,0,28.38V43.55H7.83V28.38a7.33,7.33,0,0,1,14.66,0V43.55h7.83V28.38A15.16,15.16,0,0,0,15.16,13.22Z"/><path class="g" d="M238.87,23.2a7.33,7.33,0,0,1,10.36,0l5.54-5.54A15.16,15.16,0,0,0,233.33,39.1l5.54-5.53A7.34,7.34,0,0,1,238.87,23.2Z"/><path class="h" d="M113.84,23.2a7.34,7.34,0,0,1,10.37,0l5.54-5.54A15.16,15.16,0,0,0,108.31,39.1l5.53-5.53A7.36,7.36,0,0,1,113.84,23.2Z"/><path class="i" d="M124.21,33.57a7.34,7.34,0,0,0,0-10.37l5.54-5.54A15.16,15.16,0,0,1,108.31,39.1l5.53-5.53A7.36,7.36,0,0,0,124.21,33.57Z"/><rect class="j" x="146.21" y="0.14" width="7.83" height="43.41"/><polygon class="k" points="170.34 43.55 178.24 43.55 178.24 20.48 170.34 25.93 170.34 43.55"/><polygon class="l" points="185.35 10.32 170.34 0 170.34 20.63 185.35 10.32"/><path class="m" d="M259.17,27.76h-7.83a7.32,7.32,0,0,1-12.47,5.81l-5.54,5.53a15.14,15.14,0,0,0,21.44,0A14,14,0,0,0,259.17,27.76Z"/><path class="n" d="M51.23,23.2a7.34,7.34,0,0,1,10.37,0l5.53-5.54A15.16,15.16,0,0,0,45.69,39.1l5.54-5.53A7.34,7.34,0,0,1,51.23,23.2Z"/><path class="o" d="M61.6,33.57a7.36,7.36,0,0,0,0-10.37l5.53-5.54A15.16,15.16,0,0,1,45.69,39.1l5.54-5.53A7.36,7.36,0,0,0,61.6,33.57Z"/><path class="p" d="M238.87,23.2a7.34,7.34,0,0,0,0,10.37L249.23,23.2A7.33,7.33,0,0,0,238.87,23.2Z"/><path class="q" d="M46.67,55h-2.3V59h2.36c1.49,0,2.36-.84,2.36-1.94v0C49.09,55.72,48.16,55,46.67,55Z"/><rect class="r" x="41.4" y="61.48" width="2.97" height="3.85"/><path class="q" d="M46.67,55h-2.3V59h2.36c1.49,0,2.36-.84,2.36-1.94v0C49.09,55.72,48.16,55,46.67,55Z"/><path class="c" d="M52.1,57v0c0-2.63-2-4.44-5.18-4.44H41.4v9h5.23C49.67,61.48,52.1,59.94,52.1,57Zm-3,.06c0,1.1-.87,1.94-2.36,1.94H44.37V55h2.3c1.49,0,2.42.68,2.42,1.94Z"/><polygon class="r" points="125.97 65.33 129.44 65.33 138.71 52.49 135.24 52.49 125.97 65.33"/><polygon class="c" points="138.91 65.33 135.43 65.33 126.16 52.49 129.64 52.49 138.91 65.33"/><path class="r" d="M2.13,61.46l-1.76,2a8.59,8.59,0,0,0,2.2,1.34l2-2A7.42,7.42,0,0,1,2.13,61.46Z"/><path class="r" d="M9.41,58.61a10.46,10.46,0,0,0-2.63-1C4.44,57.07,3.86,56.8,3.86,56v0c0-.63.6-1.12,1.74-1.12a6.63,6.63,0,0,1,3.52,1.26l1.54-2.12a8.06,8.06,0,0,0-5-1.64C2.88,52.3.91,53.85.91,56.17v0c0,2.55,1.76,3.27,4.48,3.93.58.14,1,.27,1.4.39l2.14-2.17A5.39,5.39,0,0,1,9.41,58.61Z"/><path class="c" d="M11,60.87a3.21,3.21,0,0,0-.08-.36s0-.07,0-.1a2.78,2.78,0,0,0-.16-.4l0-.06a3.37,3.37,0,0,0-.19-.32l0-.08a3.35,3.35,0,0,0-.62-.63l-.06,0a2.25,2.25,0,0,0-.36-.24s-.35-.2-.52-.28L6.79,60.53a2.52,2.52,0,0,1,.33.13l0,0a2.12,2.12,0,0,1,.48.25l0,0a.87.87,0,0,1,.27.27l0,0a.64.64,0,0,1,.08.14h0a.9.9,0,0,1,0,.16v0a.91.91,0,0,1,0,.17h0v0a1,1,0,0,1-.61.93,1.87,1.87,0,0,1-.52.19,3.37,3.37,0,0,1-.82.09h0a4.07,4.07,0,0,1-.5,0l-.17,0-.32,0-.18,0a3.39,3.39,0,0,1-.43-.11h0l-2,2h0a8.11,8.11,0,0,0,.78.28l.18.06.53.14.36.07.26.05.59.07h.16c.22,0,.45,0,.67,0a6.87,6.87,0,0,0,2.45-.41,6.11,6.11,0,0,0,.58-.27,5.14,5.14,0,0,0,.55-.35l.31-.27a3.06,3.06,0,0,0,.51-.63,3.1,3.1,0,0,0,.36-.73,4.25,4.25,0,0,0,.21-1.32v0c0-.17,0-.33,0-.49A.69.69,0,0,1,11,60.87Z"/><polygon class="r" points="23 59.84 23 59.84 23 59.75 23 52.49 20.03 52.49 23 55.5 23 59.84"/><path class="r" d="M31.81,52.49h-3v7.35a4,4,0,0,1-.21,1.35l2.18,2.2a6.27,6.27,0,0,0,1-3.66Z"/><path class="c" d="M28.48,61.55a.3.3,0,0,0,0,.08,2.64,2.64,0,0,1-.45.58l-.06.06a2.32,2.32,0,0,1-.62.39l-.08,0-.37.13h0l-.4.07h-.1a3.15,3.15,0,0,1-.44,0A3,3,0,0,1,24,62.31a2.89,2.89,0,0,1-.38-.4,3,3,0,0,1-.29-.5,3.14,3.14,0,0,1-.19-.59A4.43,4.43,0,0,1,23,59.75v.09h0V55.5l-3-3h0v7.24c0,3.88,2.28,5.79,5.89,5.8h.36l.3,0c.23,0,.45,0,.66-.07l.12,0,.51-.11.13,0a3.5,3.5,0,0,0,.46-.14l.13,0c.14-.06.29-.12.42-.19l.11,0,.41-.23.08-.06a3.58,3.58,0,0,0,.39-.29l.05,0c.13-.12.26-.23.38-.36l0,0a4.94,4.94,0,0,0,.36-.44h0l-2.18-2.2A1.94,1.94,0,0,1,28.48,61.55Z"/><polygon class="r" points="63.65 62.81 63.65 60.12 65.84 60.12 60.69 55.01 60.69 65.33 70.98 65.33 70.98 62.81 63.65 62.81"/><polygon class="c" points="70.02 60.12 70.02 57.61 63.65 57.61 63.65 57.61 63.65 55 70.89 55 70.89 52.49 60.69 52.49 60.69 55.01 65.84 60.12 70.02 60.12"/><path class="c" d="M88.77,60.74a4,4,0,0,0,2.89-4v0a3.93,3.93,0,0,0-1.15-2.94,5.59,5.59,0,0,0-3.94-1.3H83.36V55h3c1.44,0,2.33.62,2.33,1.83v0c0,1.08-.83,1.81-2.28,1.81h-.68v2.5h0l2.89,4.11h3.48Z"/><polygon class="r" points="80.39 52.49 80.39 65.33 83.36 65.33 83.36 55.04 83.36 55.04 83.36 52.49 80.39 52.49"/><polygon class="r" points="110.62 62.81 110.62 60.12 116.99 60.12 116.99 57.61 112.78 57.61 107.66 62.79 107.66 65.33 117.95 65.33 117.95 62.81 110.62 62.81"/><polygon class="c" points="110.62 57.61 110.62 57.61 110.62 55 110.62 55 117.86 55 117.84 52.49 107.66 52.49 107.66 62.79 112.78 57.61 110.62 57.61"/><path class="q" d="M152.33,55H150V59h2.36c1.48,0,2.35-.84,2.35-1.94v0C154.74,55.72,153.81,55,152.33,55Z"/><rect class="r" x="147.06" y="61.48" width="2.97" height="3.85"/><path class="q" d="M152.33,55H150V59h2.36c1.48,0,2.35-.84,2.35-1.94v0C154.74,55.72,153.81,55,152.33,55Z"/><path class="c" d="M157.75,57v0c0-2.63-1.95-4.44-5.17-4.44h-5.52v9h5.23C155.32,61.48,157.75,59.94,157.75,57Zm-3,.06c0,1.1-.87,1.94-2.35,1.94H150V55h2.3c1.48,0,2.41.68,2.41,1.94Z"/><path class="r" d="M170.65,52.27A7.55,7.55,0,0,0,166,53.81l2,2a4.08,4.08,0,0,1,2.66-.94,4,4,0,0,1,4.1,4v0a4,4,0,0,1-1,2.69l2,2a6.4,6.4,0,0,0,2.11-4.75v0C177.82,55.22,174.82,52.27,170.65,52.27Z"/><path class="c" d="M170.65,62.94h0a3.93,3.93,0,0,1-4.05-4v0h0v0A4,4,0,0,1,168,55.81l-2-2a6.42,6.42,0,0,0-2.52,5.1c0,3.64,3,6.63,7.18,6.64a7.53,7.53,0,0,0,5.08-1.89l-2-2A4,4,0,0,1,170.65,62.94Z"/></svg>