<?xml version="1.0" standalone="no"?>
<!DOCTYPE svg PUBLIC "-//W3C//DTD SVG 20010904//EN"
 "http://www.w3.org/TR/2001/REC-SVG-20010904/DTD/svg10.dtd">
<svg version="1.0" xmlns="http://www.w3.org/2000/svg"
 width="200.000000pt" height="200.000000pt" viewBox="0 0 200.000000 200.000000"
 preserveAspectRatio="xMidYMid meet">
<metadata>
Created by potrace 1.14, written by Peter Selinger 2001-2017
</metadata>
<g transform="translate(0.000000,200.000000) scale(0.100000,-0.100000)"
fill="#000000" stroke="none">
<path d="M938 1865 c-2 -2 -25 -5 -53 -8 -83 -8 -135 -25 -128 -43 4 -10 14
-13 32 -10 14 3 44 8 66 12 22 3 53 7 70 10 33 6 125 -14 125 -26 0 -5 10 -12
21 -15 17 -6 19 -9 8 -16 -11 -7 -11 -11 -1 -17 7 -5 10 -15 7 -23 -3 -8 12
-32 36 -56 32 -34 49 -43 75 -43 18 0 36 -4 39 -10 14 -22 31 -8 33 27 3 45 8
53 33 53 10 0 19 5 19 10 0 6 12 15 26 20 37 14 106 -26 226 -131 33 -29 98
-111 98 -123 0 -5 -3 -6 -7 -3 -3 4 -12 -2 -20 -13 -8 -11 -21 -20 -29 -20
-11 0 -12 -4 -4 -19 17 -33 12 -47 -17 -46 -26 0 -28 -2 -26 -39 2 -22 10 -44
20 -51 15 -12 15 -15 -2 -51 -10 -22 -26 -51 -37 -66 l-18 -26 92 -94 c95 -95
156 -185 179 -264 7 -24 16 -44 20 -44 8 0 26 68 35 135 49 357 -122 703 -436
880 -71 40 -209 89 -280 100 -49 7 -197 15 -202 10z m774 -530 c4 -5 13 -10
20 -11 32 -3 38 -5 38 -14 0 -7 -6 -7 -20 0 -24 13 -25 3 -4 -25 12 -16 17
-17 23 -7 6 10 10 8 14 -8 13 -51 -19 -67 -50 -24 -21 28 -49 36 -76 22 -10
-5 -24 -5 -34 0 -14 9 -14 10 4 16 12 4 26 19 33 35 11 28 38 36 52 16z"/>
<path d="M590 1821 c-5 -11 -10 -29 -10 -40 0 -24 -4 -25 -32 -10 -47 25 -139
6 -183 -38 -11 -10 -34 -17 -59 -18 -38 0 -41 -2 -38 -25 1 -14 5 -52 7 -85 8
-105 14 -137 39 -190 61 -134 213 -227 353 -219 84 6 154 43 241 130 l77 77
-47 14 -47 14 24 36 c14 19 23 38 20 42 -2 4 -23 8 -47 9 -88 4 -164 14 -192
26 -25 10 -31 20 -41 66 -7 30 -16 63 -20 74 -7 16 -5 17 11 8 22 -11 110 0
145 19 l23 12 -35 28 c-19 16 -37 29 -41 29 -5 0 -8 6 -8 14 0 18 -33 30 -59
21 -12 -3 -21 0 -25 10 -8 21 -43 19 -56 -4z m145 -80 c7 -12 -12 -24 -25 -16
-11 7 -4 25 10 25 5 0 11 -4 15 -9z m-245 -50 c0 -5 -10 -13 -22 -17 -20 -6
-20 -8 -5 -19 20 -15 22 -25 4 -25 -8 0 -24 11 -37 26 -21 21 -22 27 -10 34
19 12 70 13 70 1z m-16 -87 c20 -8 21 -30 2 -37 -16 -6 -36 11 -36 30 0 14 10
16 34 7z"/>
<path d="M853 1753 c-23 -9 -14 -30 17 -43 29 -12 30 -14 14 -31 -9 -10 -26
-20 -38 -22 -12 -3 -7 -5 15 -6 19 0 40 -6 45 -11 21 -21 69 -28 83 -13 12 13
12 16 0 24 -8 5 -17 9 -21 9 -5 0 -8 4 -8 10 0 6 9 6 23 1 24 -9 47 -4 47 9 0
5 -13 11 -30 15 -16 4 -33 13 -38 20 -5 11 -89 49 -96 44 0 0 -7 -3 -13 -6z"/>
<path d="M684 1649 c-9 -15 10 -31 29 -24 8 4 18 13 21 21 7 17 -39 20 -50 3z"/>
<path d="M833 1600 c3 -11 1 -23 -4 -26 -21 -12 5 -24 54 -24 66 0 81 -10 79
-52 -1 -33 1 -35 48 -50 28 -9 52 -12 56 -7 3 5 14 9 25 9 10 0 19 3 20 8 0 4
2 15 4 24 5 29 -24 60 -51 54 -18 -5 -27 0 -41 24 -18 32 -28 37 -38 20 -10
-17 -36 -11 -54 11 -12 15 -31 23 -60 25 -39 3 -43 1 -38 -16z"/>
<path d="M1348 1559 c-25 -14 -22 -24 9 -38 23 -11 29 -10 40 5 7 10 12 23 10
29 -5 14 -39 17 -59 4z"/>
<path d="M1557 1554 c-3 -3 -3 -13 0 -22 4 -10 2 -13 -5 -8 -16 10 -28 -22
-14 -36 8 -8 13 -7 18 5 9 25 24 21 24 -7 0 -15 7 -26 20 -29 32 -8 32 7 -1
57 -33 49 -33 49 -42 40z"/>
<path d="M217 1372 c-57 -124 -78 -219 -82 -357 -2 -99 2 -136 21 -215 79
-317 315 -557 630 -641 112 -30 296 -30 415 -1 88 21 202 68 251 103 21 16 32
18 47 9 28 -15 90 -12 143 5 59 21 114 74 146 143 24 50 27 69 27 162 0 123
-22 208 -82 309 -60 101 -218 252 -372 355 -137 91 -374 206 -425 206 -27 0
-8 -18 24 -23 47 -7 35 -36 -44 -114 l-76 -74 31 -11 c64 -22 215 -101 308
-160 293 -189 466 -352 532 -504 57 -132 -3 -248 -138 -261 l-58 -6 71 66 c88
82 128 138 119 166 -6 19 -13 13 -60 -47 -73 -94 -162 -164 -280 -222 -123
-61 -199 -80 -339 -86 -96 -4 -108 -2 -102 12 3 8 6 18 6 20 0 2 9 4 19 4 11
0 21 5 23 12 2 6 14 13 27 15 12 2 29 9 36 16 8 6 32 26 54 42 22 17 43 38 46
47 3 9 22 22 43 29 43 14 68 41 83 91 7 21 20 45 31 54 38 35 13 82 -52 97
-78 18 -117 39 -131 70 -12 26 -20 32 -49 33 -19 1 -36 6 -38 13 -5 16 -85 51
-116 51 -15 0 -26 4 -26 9 0 10 -32 7 -50 -4 -6 -3 -10 3 -10 14 0 21 -7 25
-47 21 -25 -2 -44 28 -37 57 6 22 -3 32 -37 38 -31 6 -34 12 -22 45 11 28 10
30 -13 30 -15 0 -24 -6 -24 -15 0 -8 -3 -15 -7 -16 -5 0 -19 -2 -32 -3 -29 -3
-60 43 -53 79 5 30 41 67 68 71 95 15 108 13 128 -27 6 -13 19 -25 28 -27 14
-3 15 2 6 38 -10 39 -9 43 21 74 42 43 40 58 -7 35 -50 -25 -121 -37 -185 -32
-69 6 -180 61 -239 119 l-46 45 -10 -28 c-15 -45 -2 -131 23 -149 8 -6 15 -18
15 -27 0 -9 5 -19 10 -22 6 -3 10 -13 10 -22 0 -16 40 -77 46 -70 2 2 -7 30
-21 61 -14 32 -21 55 -15 51 6 -3 17 -23 26 -43 8 -20 23 -46 33 -57 10 -11
22 -30 26 -43 7 -24 90 -72 125 -72 11 0 20 -4 20 -9 0 -5 16 -15 36 -21 19
-7 40 -22 46 -35 10 -23 80 -51 98 -40 18 11 10 -4 -15 -29 -16 -16 -25 -36
-25 -56 0 -18 -8 -43 -19 -56 -22 -29 -26 -100 -6 -108 8 -3 23 -23 35 -46 13
-25 34 -47 55 -57 46 -22 54 -51 38 -137 -7 -39 -11 -83 -7 -98 5 -25 3 -28
-19 -28 -70 0 -257 90 -355 171 -113 93 -189 199 -245 340 -80 202 -71 460 23
650 26 52 31 99 10 99 -4 0 -23 -35 -43 -78z"/>
<path d="M730 1009 c-12 -8 -11 -9 6 -4 23 6 74 -12 74 -27 0 -4 12 -8 28 -8
25 1 24 3 -18 25 -50 27 -68 30 -90 14z"/>
<path d="M880 961 c-13 -9 -13 -10 0 -15 25 -8 51 -3 47 8 -5 15 -29 18 -47 7z"/>
<path d="M955 950 c3 -5 8 -10 11 -10 2 0 4 5 4 10 0 6 -5 10 -11 10 -5 0 -7
-4 -4 -10z"/>
</g>
</svg>
